<?xml version="1.0" encoding="UTF-8" standalone="no"?>
<!-- Created with Inkscape (http://www.inkscape.org/) -->

<svg
   width="512"
   height="512"
   viewBox="0 0 512 512"
   version="1.1"
   id="svg5"
   xmlns="http://www.w3.org/2000/svg"
   xmlns:svg="http://www.w3.org/2000/svg">
  <defs
     id="defs2" />
  <g
     id="layer1">
    <rect
       style="fill:#808000;paint-order:stroke fill markers"
       id="rect234"
       width="507.96939"
       height="506.71481"
       x="3.0962198"
       y="4.0478101"
       rx="64.342094"
       ry="60.080776" />
    <path
       style="fill:#ffff00;paint-order:stroke fill markers"
       id="path502"
       d="M 381.15221,213.80485 C 380.35687,-73.041381 -125.37829,423.72067 161.46794,422.92533 448.31418,422.12999 -60.167961,-71.819946 -59.372612,215.0263 -58.577264,501.87253 447.15789,5.1104762 160.31166,5.9058156 -126.53458,6.7011549 381.94756,500.65109 381.15221,213.80485 Z"
       transform="matrix(0.75928592,0,0,0.75928592,134.91955,94.602492)" />
    <path
       style="fill:#ffff00;paint-order:stroke fill markers"
       id="path502-3"
       d="M 381.15221,213.80485 C 380.35687,-73.041381 -125.37829,423.72067 161.46794,422.92533 448.31418,422.12999 -60.167961,-71.819946 -59.372612,215.0263 -58.577264,501.87253 447.15789,5.1104762 160.31166,5.9058156 -126.53458,6.7011549 381.94756,500.65109 381.15221,213.80485 Z"
       transform="matrix(0.75928592,0,0,0.75928592,133.83864,93.197274)" />
  </g>
</svg>
